<?xml version="1.0" encoding="UTF-8"?>
<svg width="24" height="24" viewBox="0 0 24 24" fill="none" xmlns="http://www.w3.org/2000/svg">
<g clip-path="url(#clip0_7405_190)">
<path d="M22.5 21H1.5C1.275 21 1.0725 20.85 0.975 20.625C0.8775 20.4 0.8775 20.1 1.0275 19.875L2.52 17.625C2.6175 17.4 2.85 17.25 3.15 17.25H20.85C21.15 17.25 21.3825 17.4 21.48 17.7L22.9725 19.95C23.1225 20.175 23.0475 20.475 22.9725 20.7C22.8975 20.85 22.725 21 22.5 21Z" fill="#0E0E10"/>
<path d="M20.25 3.75H3.75C3.3 3.75 3 4.05 3 4.5V15C3 15.45 3.3 15.75 3.75 15.75H20.25C20.7 15.75 21 15.45 21 15V4.5C21 4.05 20.7 3.75 20.25 3.75ZM8.775 11.475C9.075 11.775 9.075 12.225 8.775 12.525C8.625 12.675 8.475 12.75 8.25 12.75C8.025 12.75 7.875 12.675 7.725 12.525L5.475 10.275C5.175 9.975 5.175 9.525 5.475 9.225L7.725 6.975C8.025 6.675 8.475 6.675 8.775 6.975C9.075 7.275 9.075 7.725 8.775 8.025L7.05 9.75L8.775 11.475ZM14.175 7.05L11.175 13.05C11.025 13.35 10.8 13.5 10.5 13.5C10.35 13.5 10.275 13.5 10.2 13.425C9.825 13.275 9.675 12.825 9.9 12.45L12.9 6.45C13.05 6.15 13.5 6 13.875 6.225C14.175 6.3 14.325 6.75 14.175 7.05ZM18.525 10.275L16.275 12.525C16.125 12.675 15.975 12.75 15.75 12.75C15.525 12.75 15.375 12.675 15.225 12.525C14.925 12.225 14.925 11.775 15.225 11.475L16.95 9.75L15.225 8.025C14.925 7.725 14.925 7.275 15.225 6.975C15.525 6.675 15.975 6.675 16.275 6.975L18.525 9.225C18.825 9.525 18.825 9.975 18.525 10.275Z" fill="#0E0E10"/>
</g>
<defs>
<clipPath id="clip0_7405_190">
<rect width="24" height="24" fill="white"/>
</clipPath>
</defs>
</svg>
