<svg id="svg" version="1.1" xmlns="http://www.w3.org/2000/svg" xmlns:xlink="http://www.w3.org/1999/xlink" width="400" height="225" viewBox="0, 0, 400,225"><g id="svgg"><path id="path0" d="M34.768 59.430 C 34.712 59.575,34.667 59.911,34.667 60.176 C 34.667 60.619,34.627 60.650,34.186 60.562 C 33.909 60.507,33.467 60.574,33.144 60.719 C 32.835 60.859,32.223 60.956,31.780 60.935 C 31.152 60.906,30.942 60.963,30.816 61.199 C 30.727 61.364,30.538 61.500,30.394 61.500 C 30.057 61.500,28.667 62.954,28.667 63.307 C 28.667 63.392,28.517 63.500,28.333 63.548 C 28.134 63.600,28.000 63.776,28.000 63.984 C 28.000 64.176,27.925 64.333,27.833 64.333 C 27.742 64.333,27.667 64.478,27.667 64.655 C 27.667 64.832,27.549 65.094,27.405 65.238 C 27.261 65.382,27.223 65.500,27.321 65.500 C 27.420 65.500,27.500 65.725,27.500 66.000 C 27.500 66.504,27.266 66.678,27.110 66.292 C 26.940 65.869,27.006 68.399,27.181 68.982 C 27.325 69.463,27.287 70.064,26.993 71.918 C 26.790 73.201,26.566 75.450,26.496 76.917 C 26.425 78.383,26.252 80.183,26.111 80.917 C 25.855 82.243,25.270 85.494,25.000 87.083 C 24.922 87.542,24.697 88.817,24.500 89.917 C 24.303 91.017,24.078 92.292,24.000 92.750 C 23.866 93.539,23.438 95.956,22.907 98.917 C 22.350 102.026,21.758 106.290,20.999 112.667 C 20.917 113.354,20.692 115.117,20.500 116.583 C 20.307 118.050,20.005 120.563,19.828 122.167 C 19.518 124.975,19.261 126.808,18.752 129.833 C 17.972 134.474,17.692 136.584,17.492 139.333 C 17.392 140.715,17.172 142.162,16.923 143.083 C 16.660 144.055,16.501 145.141,16.471 146.167 C 16.431 147.514,16.375 147.791,16.091 148.024 C 15.763 148.293,15.769 148.309,16.441 149.038 C 16.816 149.445,17.263 149.997,17.433 150.264 C 17.603 150.531,17.784 150.787,17.835 150.833 C 17.886 150.879,18.099 151.139,18.308 151.411 C 18.745 151.979,19.600 152.409,19.765 152.143 C 19.823 152.049,20.011 152.204,20.183 152.486 C 20.354 152.769,20.568 153.000,20.657 153.000 C 20.746 153.000,20.867 153.260,20.927 153.577 C 21.068 154.330,21.500 154.734,21.500 154.114 C 21.500 153.879,21.572 153.642,21.659 153.588 C 21.747 153.534,21.778 153.383,21.728 153.253 C 21.391 152.375,21.975 152.850,22.456 153.845 C 23.087 155.149,23.210 155.148,23.401 153.833 C 23.568 152.682,23.724 152.547,24.140 153.196 C 24.335 153.501,24.496 153.688,24.497 153.613 C 24.499 153.538,24.695 153.629,24.932 153.816 C 25.422 154.201,26.803 154.142,27.050 153.725 C 27.123 153.601,27.326 153.500,27.500 153.500 C 27.675 153.500,28.003 153.415,28.230 153.312 C 28.688 153.104,29.571 153.250,29.412 153.508 C 29.356 153.598,29.246 153.632,29.167 153.583 C 29.088 153.535,28.973 153.576,28.911 153.675 C 28.850 153.775,28.682 153.811,28.538 153.756 C 28.394 153.701,28.216 153.752,28.141 153.869 C 28.040 154.028,28.004 154.031,28.003 153.881 C 28.001 153.748,27.799 153.797,27.417 154.022 C 27.096 154.211,26.833 154.471,26.833 154.600 C 26.833 154.945,27.060 154.885,27.494 154.423 C 27.790 154.108,27.948 154.050,28.178 154.173 C 28.342 154.260,28.596 154.286,28.743 154.230 C 28.903 154.168,29.127 154.263,29.302 154.464 C 29.510 154.704,29.725 154.776,30.047 154.714 C 30.296 154.667,30.500 154.694,30.500 154.775 C 30.500 155.063,35.773 155.124,37.375 154.854 C 37.444 154.843,37.500 154.644,37.500 154.413 C 37.500 154.062,37.439 154.009,37.125 154.086 C 36.836 154.156,36.643 154.042,36.285 153.589 C 36.029 153.265,35.894 153.000,35.986 153.000 C 36.078 153.000,36.288 152.858,36.452 152.685 C 36.949 152.159,39.559 151.826,47.667 151.253 C 55.258 150.716,56.123 150.635,57.417 150.342 C 58.150 150.176,59.050 149.986,59.417 149.922 C 59.783 149.857,60.177 149.726,60.292 149.631 C 60.406 149.537,60.500 149.498,60.500 149.546 C 60.500 149.594,61.156 149.489,61.958 149.313 C 62.760 149.136,63.660 148.981,63.958 148.969 C 64.256 148.956,64.500 148.890,64.500 148.821 C 64.500 148.752,64.631 148.716,64.792 148.741 C 64.952 148.766,65.121 148.733,65.167 148.668 C 65.249 148.552,67.500 148.294,67.500 148.401 C 67.500 148.581,65.038 150.063,64.376 150.281 C 62.946 150.753,62.917 151.000,64.292 151.000 C 65.288 151.000,65.473 151.042,65.394 151.250 C 65.292 151.514,65.596 151.581,66.070 151.399 C 66.384 151.278,66.418 150.895,66.125 150.777 C 65.993 150.724,66.016 150.688,66.189 150.680 C 66.339 150.673,66.503 150.826,66.554 151.021 C 66.664 151.441,67.423 151.347,67.811 150.866 C 67.984 150.650,68.058 150.635,68.120 150.802 C 68.182 150.969,68.282 150.950,68.546 150.719 C 68.736 150.553,68.831 150.518,68.758 150.643 C 68.625 150.869,69.488 150.783,69.917 150.528 C 70.008 150.474,70.289 150.451,70.542 150.477 C 70.868 150.511,71.000 150.450,71.000 150.263 C 71.000 150.094,71.149 150.000,71.417 150.000 C 71.680 150.000,71.833 150.094,71.833 150.256 C 71.833 150.460,71.901 150.476,72.167 150.333 C 72.362 150.229,72.500 150.220,72.500 150.313 C 72.500 150.494,74.338 150.100,74.888 149.801 C 75.087 149.692,75.362 149.592,75.500 149.578 C 75.637 149.564,76.109 149.428,76.547 149.276 C 77.883 148.814,78.092 149.127,77.072 150.062 C 75.880 151.154,76.749 151.131,78.132 150.034 C 78.791 149.511,79.700 148.806,80.151 148.467 C 82.197 146.930,82.592 145.663,82.557 140.750 C 82.501 132.967,81.537 129.003,78.418 123.744 C 77.681 122.501,75.607 122.256,72.719 123.070 C 70.552 123.680,67.105 124.272,64.359 124.504 C 63.382 124.586,61.946 124.831,61.167 125.049 C 59.872 125.410,59.671 125.425,58.833 125.229 C 57.509 124.919,57.167 124.938,57.167 125.322 C 57.167 125.738,56.950 125.791,54.750 125.914 C 49.450 126.209,42.318 126.717,40.383 126.938 L 39.515 127.037 39.584 126.477 C 39.621 126.169,39.736 124.979,39.839 123.833 C 40.056 121.409,40.759 118.185,41.099 118.054 C 41.233 118.003,41.325 117.744,41.317 117.441 C 41.246 114.566,41.816 110.371,42.759 106.833 C 43.139 105.407,43.341 104.215,43.402 103.055 C 43.450 102.123,43.600 100.848,43.735 100.222 C 43.870 99.596,44.327 97.283,44.750 95.083 C 46.357 86.730,46.693 85.074,46.846 84.750 C 47.010 84.404,47.246 82.884,47.493 80.583 C 47.572 79.850,47.801 78.650,48.003 77.917 C 49.447 72.666,49.939 67.903,49.245 65.889 C 49.019 65.232,48.833 64.538,48.833 64.347 C 48.833 64.156,48.740 63.997,48.625 63.994 C 48.341 63.986,47.607 63.346,47.264 62.807 C 46.752 62.003,43.077 60.680,42.008 60.915 C 41.682 60.986,41.273 60.891,40.684 60.607 C 39.846 60.203,39.828 60.201,39.604 60.520 C 39.405 60.805,39.289 60.825,38.656 60.683 C 38.259 60.594,37.874 60.558,37.799 60.604 C 37.496 60.792,37.000 60.467,37.000 60.082 C 37.000 59.864,36.925 59.640,36.833 59.583 C 36.742 59.527,36.667 59.565,36.667 59.668 C 36.667 59.875,36.218 59.778,35.433 59.400 C 34.841 59.115,34.890 59.112,34.768 59.430 M241.805 62.076 C 241.453 62.403,241.345 62.436,241.270 62.243 C 241.135 61.889,240.706 61.946,240.583 62.333 C 240.525 62.517,240.370 62.667,240.239 62.667 C 240.107 62.667,240.000 62.777,240.000 62.911 C 240.000 63.061,239.902 63.119,239.750 63.060 C 239.593 63.000,239.500 63.062,239.500 63.226 C 239.500 63.616,239.055 63.783,237.667 63.910 C 232.381 64.397,230.568 64.702,228.500 65.451 C 225.564 66.515,225.090 66.712,222.667 67.872 C 219.541 69.368,219.418 69.425,218.333 69.841 C 217.331 70.225,215.645 71.136,215.478 71.384 C 215.420 71.470,215.301 71.412,215.213 71.256 C 214.868 70.640,213.000 71.659,213.000 72.464 C 213.000 72.775,212.455 73.075,211.979 73.025 C 211.562 72.981,211.500 73.031,211.500 73.404 C 211.500 73.640,211.444 73.834,211.375 73.834 C 211.306 73.835,211.241 74.175,211.229 74.590 C 211.217 75.026,211.094 75.471,210.937 75.644 C 210.788 75.808,210.667 76.145,210.667 76.392 C 210.667 76.708,210.544 76.896,210.252 77.029 C 209.887 77.196,209.849 77.292,209.937 77.839 C 209.992 78.181,209.952 78.852,209.850 79.330 C 209.714 79.962,209.713 80.385,209.844 80.873 C 210.026 81.550,209.918 83.014,209.253 88.833 C 208.848 92.377,208.205 99.694,207.758 105.833 C 207.621 107.712,207.376 111.087,207.213 113.333 C 206.980 116.548,206.917 119.457,206.917 127.004 L 206.917 136.590 207.458 137.690 C 208.263 139.325,208.485 140.059,208.671 141.708 C 208.861 143.381,208.945 143.591,209.865 144.699 C 210.300 145.222,210.706 146.021,211.093 147.115 C 211.846 149.245,212.476 150.472,213.031 150.883 L 213.478 151.215 214.018 150.760 C 214.427 150.416,214.663 150.332,214.988 150.414 C 215.930 150.651,217.887 150.851,217.982 150.720 C 218.089 150.573,219.420 150.100,220.228 149.922 C 220.492 149.864,220.816 149.708,220.949 149.575 C 221.082 149.442,221.431 149.333,221.725 149.333 C 222.051 149.333,222.369 149.205,222.541 149.005 C 222.696 148.824,222.993 148.642,223.203 148.600 C 224.988 148.247,226.224 147.890,227.000 147.503 C 227.504 147.252,228.217 146.952,228.583 146.836 C 228.950 146.721,229.850 146.382,230.583 146.083 C 231.774 145.597,232.947 145.209,233.667 145.062 C 234.252 144.943,238.605 143.808,238.833 143.715 C 238.971 143.659,239.608 143.590,240.250 143.560 C 241.978 143.482,244.506 143.011,245.131 142.652 C 245.688 142.332,245.693 142.334,245.874 142.995 C 245.927 143.187,246.007 143.162,246.250 142.878 C 246.646 142.416,246.850 142.543,246.724 143.173 C 246.579 143.894,246.837 143.782,247.674 142.758 C 248.582 141.647,248.742 141.617,248.609 142.583 C 248.553 142.996,248.566 143.333,248.638 143.333 C 249.388 143.333,250.375 140.585,250.673 137.667 C 250.850 135.937,250.943 135.537,251.221 135.311 C 251.521 135.068,251.534 134.984,251.346 134.530 C 251.230 134.249,251.181 133.946,251.237 133.855 C 251.293 133.764,251.263 133.643,251.169 133.585 C 250.892 133.414,250.972 132.833,251.273 132.833 C 251.527 132.833,251.983 132.394,251.995 132.138 C 251.998 132.077,251.783 131.979,251.517 131.920 C 250.935 131.793,250.839 131.504,250.836 129.880 C 250.831 127.288,249.343 121.836,248.420 121.025 C 247.105 119.871,244.816 119.906,242.150 121.121 C 241.545 121.397,240.645 121.716,240.150 121.830 C 239.655 121.944,239.068 122.109,238.846 122.195 C 238.623 122.282,237.723 122.499,236.846 122.678 C 235.968 122.857,234.725 123.184,234.083 123.405 C 230.201 124.742,227.915 125.279,225.410 125.446 L 223.904 125.546 223.945 124.898 C 224.365 118.429,224.576 115.833,224.684 115.833 C 224.756 115.833,225.022 116.012,225.275 116.230 L 225.736 116.626 226.993 115.987 C 227.684 115.636,228.883 115.080,229.657 114.750 C 230.431 114.421,231.411 113.903,231.834 113.598 C 234.361 111.783,241.897 108.662,242.135 109.332 C 242.164 109.412,242.492 109.370,242.865 109.239 C 243.237 109.108,243.755 109.000,244.015 109.000 C 244.518 109.000,245.988 108.557,246.224 108.335 C 246.425 108.145,246.038 107.500,245.724 107.500 C 245.507 107.500,245.497 107.454,245.667 107.250 C 245.781 107.112,246.058 107.000,246.284 107.000 C 246.648 107.000,246.682 106.947,246.588 106.520 C 246.489 106.073,246.523 106.033,247.093 105.926 C 247.428 105.863,247.863 105.641,248.060 105.432 C 248.256 105.223,248.707 105.006,249.062 104.950 C 249.947 104.810,249.954 104.778,249.270 103.978 C 248.938 103.590,248.667 103.225,248.667 103.165 C 248.667 103.105,248.491 102.962,248.276 102.847 C 247.505 102.435,247.976 101.507,248.958 101.503 C 249.664 101.499,249.653 101.213,248.917 100.500 C 248.596 100.189,248.333 99.873,248.333 99.798 C 248.333 99.723,248.090 99.439,247.792 99.166 C 247.285 98.703,247.272 98.665,247.592 98.575 C 248.022 98.454,248.068 96.454,247.642 96.370 C 247.511 96.344,247.272 95.876,247.110 95.331 C 246.948 94.786,246.674 94.241,246.502 94.120 C 246.329 93.999,246.081 93.590,245.950 93.210 C 245.820 92.831,245.450 92.122,245.128 91.635 C 244.807 91.148,244.290 90.300,243.980 89.750 L 243.417 88.750 243.365 89.375 C 243.310 90.037,243.197 90.130,242.857 89.792 C 242.689 89.624,242.655 89.756,242.687 90.456 C 242.733 91.477,242.658 91.601,242.178 91.303 C 241.883 91.120,241.799 91.121,241.682 91.309 C 241.583 91.469,241.381 91.500,240.995 91.416 C 240.505 91.308,240.395 91.359,239.933 91.901 C 239.059 92.927,231.692 95.969,229.691 96.130 C 228.946 96.190,228.432 96.336,228.048 96.597 C 226.872 97.395,225.667 97.257,225.667 96.324 C 225.667 94.740,226.311 90.884,226.836 89.327 C 227.362 87.765,227.519 87.500,227.923 87.500 C 228.126 87.500,228.583 87.374,228.938 87.219 C 229.293 87.065,229.652 86.956,229.735 86.978 C 229.947 87.034,230.887 86.640,231.054 86.426 C 231.149 86.305,231.218 86.314,231.275 86.455 C 231.369 86.684,232.696 86.086,233.603 85.406 C 234.084 85.046,236.194 84.357,237.167 84.243 C 237.396 84.216,237.602 84.178,237.625 84.159 C 237.676 84.117,237.943 84.049,238.167 84.021 C 238.258 84.009,238.333 83.887,238.333 83.750 C 238.333 83.612,238.413 83.500,238.510 83.500 C 238.607 83.500,238.643 83.570,238.590 83.655 C 238.538 83.740,238.571 83.857,238.664 83.915 C 238.757 83.973,238.833 83.953,238.833 83.871 C 238.833 83.789,238.927 83.717,239.042 83.711 C 239.764 83.672,241.813 83.466,242.134 83.401 C 242.443 83.338,242.497 83.249,242.407 82.953 C 242.316 82.651,242.336 82.622,242.515 82.792 C 242.817 83.080,243.165 83.052,243.553 82.708 C 243.878 82.421,243.881 82.430,243.773 83.375 C 243.642 84.521,243.775 84.575,244.689 83.750 C 245.044 83.429,245.456 83.167,245.606 83.167 C 247.625 83.167,250.335 76.887,249.601 73.910 C 247.832 66.739,247.132 65.390,243.694 62.542 C 242.486 61.540,242.404 61.520,241.805 62.076 M137.246 62.517 C 137.188 62.782,137.026 63.062,136.885 63.141 C 136.744 63.220,136.502 63.832,136.343 64.517 C 136.079 65.653,136.016 65.762,135.541 65.906 C 135.008 66.067,134.582 68.446,134.905 69.464 C 135.022 69.832,134.647 73.249,134.251 75.417 C 133.979 76.912,133.592 80.235,133.338 83.269 C 133.244 84.379,133.051 85.616,132.908 86.019 C 132.366 87.543,132.159 88.858,131.917 92.333 C 131.780 94.304,131.593 96.404,131.502 97.000 C 131.411 97.596,131.221 99.021,131.081 100.167 C 130.940 101.313,130.736 102.662,130.627 103.167 L 130.429 104.083 130.312 102.833 C 130.160 101.202,129.758 98.550,129.440 97.083 C 129.300 96.442,128.999 94.642,128.769 93.083 C 128.248 89.545,127.871 87.162,127.661 86.083 C 127.024 82.809,126.676 80.754,126.589 79.750 C 126.533 79.108,126.338 77.758,126.154 76.750 C 125.661 74.042,125.667 74.064,125.498 74.336 C 125.350 74.577,125.000 73.938,125.000 73.426 C 125.000 73.306,124.898 73.123,124.773 73.019 C 124.648 72.915,124.409 72.208,124.242 71.446 C 123.974 70.225,123.873 70.015,123.376 69.656 C 123.067 69.433,122.758 69.112,122.690 68.944 C 122.297 67.976,116.817 66.801,116.542 67.625 C 116.498 67.756,116.632 67.833,116.903 67.833 C 117.140 67.833,117.333 67.908,117.333 68.000 C 117.333 68.092,117.218 68.167,117.077 68.167 C 116.937 68.167,116.629 68.293,116.393 68.447 C 115.968 68.726,115.960 68.723,115.357 67.994 C 115.023 67.591,114.591 67.075,114.397 66.847 L 114.044 66.434 113.509 66.884 C 113.215 67.131,112.866 67.333,112.733 67.333 C 112.600 67.333,112.423 67.513,112.340 67.734 C 112.177 68.162,111.654 68.313,110.125 68.374 C 109.651 68.393,109.333 68.484,109.333 68.600 C 109.333 68.966,108.611 69.006,108.244 68.661 C 107.756 68.202,107.647 68.236,106.886 69.083 C 106.490 69.524,106.067 69.833,105.859 69.833 C 105.612 69.833,105.474 69.970,105.397 70.292 C 105.338 70.544,105.111 71.125,104.894 71.583 C 104.676 72.042,104.389 72.942,104.256 73.583 C 104.123 74.225,103.902 75.237,103.766 75.833 C 103.630 76.429,103.438 78.229,103.341 79.833 C 103.243 81.438,103.084 83.275,102.987 83.917 C 102.889 84.558,102.741 85.533,102.658 86.083 C 102.575 86.633,102.505 87.807,102.503 88.691 C 102.500 90.463,102.286 92.864,101.905 95.417 C 101.768 96.333,101.580 98.396,101.488 100.000 C 101.396 101.604,101.242 103.142,101.147 103.417 C 101.053 103.692,100.913 104.704,100.837 105.667 C 100.761 106.629,100.544 108.917,100.356 110.750 C 100.167 112.583,99.894 116.033,99.748 118.417 C 99.602 120.800,99.420 123.313,99.344 124.000 C 99.267 124.688,99.152 126.263,99.089 127.500 C 99.025 128.737,98.826 130.762,98.646 132.000 C 98.211 134.989,98.017 137.209,98.005 139.333 C 97.998 140.527,97.944 141.004,97.833 140.833 C 97.713 140.648,97.671 140.747,97.669 141.218 C 97.668 141.599,97.733 141.812,97.833 141.750 C 97.937 141.686,98.011 142.046,98.029 142.698 C 98.044 143.277,98.065 143.872,98.076 144.020 C 98.086 144.169,98.285 144.544,98.518 144.853 C 98.751 145.163,98.993 145.529,99.056 145.667 C 99.119 145.804,99.314 146.142,99.490 146.417 C 99.665 146.692,99.814 147.034,99.821 147.177 C 99.836 147.490,100.729 148.382,100.878 148.233 C 100.936 148.175,101.033 148.324,101.093 148.564 C 101.154 148.804,101.264 149.000,101.338 149.000 C 101.413 149.000,101.522 149.219,101.580 149.486 C 101.722 150.132,102.029 150.220,102.529 149.757 L 102.939 149.376 103.332 150.396 C 103.895 151.857,103.948 151.851,104.107 150.318 L 104.250 148.940 104.792 149.483 C 105.166 149.858,105.333 149.945,105.333 149.763 C 105.333 149.429,105.600 149.420,105.727 149.750 C 105.924 150.263,106.146 149.971,106.267 149.042 L 106.391 148.083 106.644 148.917 C 106.964 149.969,106.937 149.942,107.332 149.584 C 107.590 149.351,107.667 149.071,107.667 148.365 L 107.667 147.448 108.017 147.766 C 108.210 147.940,108.528 148.083,108.724 148.083 C 108.986 148.083,109.103 148.211,109.165 148.566 C 109.251 149.054,109.722 149.500,109.932 149.290 C 109.995 149.228,110.114 148.518,110.197 147.713 C 110.471 145.047,110.841 143.505,111.208 143.501 C 111.277 143.501,111.333 143.383,111.333 143.240 C 111.333 143.065,111.457 142.996,111.708 143.031 C 112.091 143.084,112.304 142.258,112.340 140.583 C 112.349 140.158,112.371 140.133,112.489 140.417 C 112.610 140.710,112.646 140.680,112.791 140.167 C 112.980 139.496,112.977 139.488,113.354 141.542 C 113.626 143.020,113.991 142.929,113.998 141.381 C 114.000 140.856,114.487 140.369,114.809 140.568 C 114.979 140.674,115.358 137.835,115.333 136.643 C 115.295 134.885,115.653 125.625,115.763 125.522 C 115.824 125.464,115.842 127.292,115.803 129.583 C 115.740 133.218,115.757 133.612,115.936 132.667 C 116.202 131.255,116.409 124.319,116.174 124.667 C 116.029 124.881,116.005 124.875,116.003 124.625 C 116.001 124.465,116.075 124.333,116.167 124.333 C 116.270 124.333,116.326 123.526,116.315 122.208 C 116.295 119.904,116.153 120.114,115.836 122.917 C 115.732 123.838,115.713 122.833,115.774 119.667 C 115.823 117.146,115.926 114.521,116.003 113.833 C 116.111 112.862,116.132 113.215,116.093 115.417 C 116.045 118.239,116.220 118.692,116.441 116.315 C 116.500 115.679,116.571 115.182,116.598 115.209 C 116.674 115.285,117.846 119.776,118.110 121.000 C 118.238 121.596,118.495 122.871,118.682 123.833 C 119.021 125.588,120.312 131.020,120.760 132.583 C 121.370 134.706,122.572 138.704,122.941 139.833 C 123.166 140.521,123.461 141.975,123.597 143.066 C 123.882 145.355,123.866 145.313,124.393 145.212 C 124.927 145.110,125.090 145.421,124.764 145.918 C 124.327 146.586,124.417 147.000,125.000 147.000 C 125.275 147.000,125.500 147.081,125.500 147.181 C 125.500 147.280,125.587 147.332,125.693 147.297 C 125.798 147.262,126.114 147.441,126.393 147.697 C 126.713 147.989,126.942 148.094,127.012 147.981 C 127.080 147.870,127.325 147.999,127.654 148.321 C 128.200 148.854,128.568 148.879,128.379 148.370 C 128.321 148.212,128.474 148.319,128.720 148.607 C 128.966 148.896,129.167 149.285,129.167 149.473 C 129.167 149.660,129.242 149.860,129.333 149.917 C 129.431 149.977,129.502 149.792,129.506 149.468 L 129.511 148.917 129.839 149.310 C 130.162 149.699,130.167 149.699,130.167 149.347 L 130.167 148.990 130.648 149.346 C 130.912 149.541,131.225 149.881,131.343 150.101 C 131.460 150.320,131.621 150.500,131.701 150.500 C 131.780 150.500,131.767 150.355,131.673 150.178 C 131.390 149.649,131.457 149.655,132.458 150.249 C 134.347 151.369,136.384 151.497,137.761 150.583 C 138.244 150.263,138.724 150.000,138.827 150.000 C 139.946 150.000,142.500 147.387,142.500 146.242 C 142.500 146.020,142.728 145.125,143.007 144.255 C 143.488 142.753,143.615 141.479,143.322 141.083 C 143.254 140.992,143.376 140.092,143.593 139.083 C 143.809 138.075,143.990 137.021,143.993 136.742 C 143.997 136.462,144.065 136.162,144.145 136.075 C 144.400 135.798,144.998 133.585,145.270 131.917 C 145.325 131.579,145.161 131.796,144.766 132.583 C 144.445 133.225,144.178 133.686,144.174 133.607 C 144.164 133.418,145.336 126.608,145.387 126.557 C 145.794 126.150,145.846 126.969,145.522 128.706 C 145.155 130.679,145.056 131.919,145.346 130.917 C 145.689 129.729,146.008 128.094,145.933 127.899 C 145.888 127.783,146.035 127.112,146.258 126.408 C 146.948 124.234,147.792 119.150,148.083 115.417 C 148.140 114.683,148.328 112.958,148.501 111.583 C 148.674 110.208,148.861 108.296,148.917 107.333 C 149.042 105.167,149.106 104.574,149.316 103.647 C 149.567 102.540,149.676 100.722,149.474 101.011 C 149.359 101.177,149.342 101.048,149.419 100.584 C 149.481 100.217,149.605 99.871,149.697 99.815 C 149.788 99.758,149.846 99.495,149.824 99.231 C 149.803 98.966,149.828 98.638,149.879 98.500 C 149.931 98.362,150.131 97.237,150.325 96.000 C 150.519 94.763,150.721 93.534,150.773 93.271 C 150.839 92.944,150.810 92.828,150.684 92.906 C 150.583 92.968,150.500 93.253,150.500 93.538 C 150.500 93.822,150.466 94.022,150.425 93.980 C 150.284 93.840,150.645 87.439,150.978 84.167 C 151.159 82.379,151.355 80.167,151.413 79.250 C 151.471 78.333,151.641 77.058,151.790 76.417 C 152.624 72.826,151.769 70.495,148.868 68.450 C 148.582 68.248,148.326 67.933,148.299 67.750 C 148.244 67.377,146.687 66.763,145.307 66.570 C 144.546 66.463,144.525 66.444,144.173 65.522 C 143.435 63.589,142.787 63.261,140.986 63.910 C 139.476 64.455,139.039 64.316,138.393 63.082 C 137.837 62.020,137.403 61.806,137.246 62.517 M74.124 62.352 C 73.963 62.443,73.753 62.470,73.658 62.411 C 73.426 62.268,72.714 62.748,71.987 63.539 C 71.485 64.084,71.319 64.170,70.944 64.075 C 70.261 63.904,69.333 64.129,69.333 64.466 C 69.332 64.622,69.051 65.127,68.708 65.588 C 67.401 67.342,66.806 68.331,66.267 69.648 C 65.662 71.127,65.257 71.693,64.853 71.626 C 64.657 71.594,64.383 72.208,63.727 74.153 C 63.250 75.566,62.772 76.886,62.665 77.086 C 62.558 77.287,62.454 77.686,62.434 77.974 C 62.413 78.278,62.210 78.694,61.949 78.966 C 61.702 79.224,61.500 79.530,61.500 79.646 C 61.500 79.762,61.287 80.170,61.027 80.553 C 60.767 80.936,60.421 81.662,60.258 82.167 C 60.096 82.671,59.665 83.758,59.300 84.583 C 58.296 86.858,57.390 89.480,56.651 92.250 C 55.865 95.198,54.731 98.990,53.835 101.667 C 52.189 106.581,50.372 113.407,50.217 115.250 C 50.130 116.286,50.062 116.465,49.612 116.848 L 49.105 117.279 49.474 117.796 C 49.676 118.081,49.990 118.361,50.171 118.418 C 50.352 118.475,50.500 118.600,50.500 118.696 C 50.500 118.791,50.619 118.823,50.765 118.767 C 50.911 118.711,51.117 118.722,51.223 118.790 C 51.421 118.917,51.955 118.998,52.625 119.002 C 52.899 119.003,53.000 119.102,53.000 119.367 C 53.000 119.699,53.018 119.706,53.209 119.445 C 53.554 118.973,55.062 119.544,54.955 120.106 C 54.871 120.545,54.813 120.523,58.083 121.313 C 60.806 121.971,61.196 121.850,62.483 119.942 C 62.929 119.281,63.415 118.640,63.563 118.517 C 64.067 118.098,66.165 114.143,66.169 113.603 C 66.172 113.248,66.489 112.235,66.699 111.908 C 66.835 111.697,67.269 110.530,67.594 109.500 L 67.831 108.750 67.483 109.167 C 67.124 109.597,67.129 109.541,67.542 108.417 C 68.041 107.059,68.312 105.557,68.025 105.735 C 67.946 105.783,67.740 105.712,67.566 105.578 C 67.288 105.362,67.285 105.345,67.546 105.436 C 67.725 105.498,68.098 105.369,68.492 105.109 C 68.955 104.802,69.467 104.647,70.279 104.568 C 70.905 104.507,71.829 104.324,72.333 104.161 C 73.270 103.859,75.850 103.243,76.750 103.108 C 77.025 103.066,77.382 102.979,77.544 102.914 C 77.974 102.741,78.292 103.092,78.422 103.885 C 78.575 104.814,79.673 109.543,79.774 109.706 C 80.085 110.209,80.675 112.886,80.798 114.350 C 80.932 115.950,81.002 116.210,81.542 117.100 C 81.869 117.641,82.300 118.586,82.498 119.201 C 83.262 121.574,84.689 122.021,87.876 120.885 C 88.496 120.664,89.546 120.412,90.210 120.326 C 92.495 120.027,93.378 119.856,93.555 119.678 C 93.653 119.580,93.900 119.500,94.103 119.500 C 94.306 119.500,94.510 119.406,94.556 119.292 C 94.766 118.772,94.639 119.869,94.417 120.500 C 94.279 120.890,94.167 121.227,94.167 121.250 C 94.167 121.273,94.354 121.292,94.583 121.292 C 94.813 121.292,95.000 121.231,95.000 121.158 C 95.000 120.888,95.550 120.484,95.791 120.576 C 96.091 120.691,97.133 119.641,97.241 119.113 C 97.515 117.774,97.443 115.261,97.059 112.773 C 95.537 102.917,94.306 96.290,92.928 90.532 C 92.422 88.417,91.975 86.176,91.935 85.552 C 91.895 84.928,91.743 84.088,91.598 83.687 C 91.452 83.286,91.333 82.720,91.333 82.429 C 91.333 82.138,91.269 81.829,91.191 81.742 C 91.001 81.529,90.546 79.782,90.412 78.750 C 89.337 70.437,87.994 66.079,86.028 64.522 C 84.896 63.626,84.449 63.525,80.426 63.260 C 77.660 63.077,76.560 62.944,76.297 62.760 C 76.099 62.621,75.773 62.551,75.568 62.602 C 75.365 62.653,75.022 62.581,74.807 62.441 C 74.527 62.259,74.334 62.234,74.124 62.352 M191.667 62.394 C 191.667 62.519,191.531 62.801,191.365 63.019 C 191.043 63.443,190.667 64.574,190.667 65.119 C 190.667 65.499,190.175 66.000,189.801 66.000 C 189.472 66.000,189.335 66.969,189.330 69.315 C 189.328 70.288,189.177 72.058,188.996 73.250 C 188.814 74.442,188.590 76.092,188.497 76.917 C 188.404 77.742,188.295 78.529,188.253 78.667 C 188.212 78.804,188.098 79.929,188.001 81.167 C 187.773 84.045,187.520 85.807,187.257 86.333 C 186.897 87.053,186.664 88.687,186.337 92.782 C 185.997 97.040,185.460 101.546,185.093 103.218 L 184.867 104.250 184.850 103.378 C 184.832 102.442,184.612 100.841,184.225 98.833 C 184.092 98.146,183.765 96.158,183.498 94.417 C 183.231 92.675,182.857 90.313,182.668 89.167 C 182.478 88.021,182.242 86.558,182.142 85.917 C 182.042 85.275,181.895 84.481,181.814 84.153 C 181.598 83.266,181.215 80.901,181.088 79.667 C 180.810 76.978,180.205 74.002,180.001 74.331 C 179.917 74.468,179.800 74.317,179.664 73.895 C 179.550 73.540,179.390 73.166,179.309 73.063 C 179.228 72.960,179.008 72.285,178.820 71.563 C 178.435 70.083,178.162 69.574,177.671 69.418 C 177.485 69.359,177.333 69.181,177.333 69.023 C 177.333 68.385,173.716 67.117,172.995 67.502 C 172.723 67.648,172.521 67.647,172.155 67.495 C 171.658 67.289,171.167 67.367,171.167 67.650 C 171.167 67.739,171.373 67.836,171.625 67.867 C 172.061 67.921,172.047 67.940,171.333 68.278 L 170.583 68.634 170.102 68.108 C 169.837 67.820,169.401 67.337,169.134 67.035 L 168.647 66.487 168.144 66.910 C 167.867 67.143,167.532 67.333,167.400 67.333 C 167.267 67.333,167.089 67.515,167.005 67.737 C 166.852 68.140,165.905 68.382,164.458 68.387 C 164.206 68.388,164.000 68.480,164.000 68.592 C 164.000 68.894,163.300 69.019,163.006 68.769 C 162.441 68.288,162.324 68.313,161.586 69.071 C 161.179 69.490,160.694 69.833,160.509 69.833 C 160.278 69.833,160.142 69.976,160.074 70.292 C 160.019 70.544,159.755 71.243,159.487 71.847 C 159.219 72.450,159.000 73.226,159.000 73.571 C 159.000 73.917,158.891 74.436,158.759 74.725 C 158.421 75.461,158.000 78.762,158.000 80.680 C 158.000 81.565,157.895 82.918,157.766 83.687 C 157.395 85.897,157.348 86.386,157.162 89.917 C 157.065 91.750,156.880 93.888,156.750 94.667 C 156.621 95.446,156.434 97.171,156.335 98.500 C 156.103 101.603,155.890 103.558,155.681 104.500 C 155.589 104.912,155.511 105.703,155.507 106.257 C 155.503 106.810,155.391 108.085,155.257 109.090 C 154.952 111.384,154.500 117.654,154.499 119.608 C 154.499 120.419,154.393 121.721,154.264 122.500 C 154.134 123.279,153.981 124.967,153.923 126.250 C 153.803 128.909,153.602 131.048,153.257 133.333 C 152.890 135.755,152.620 139.373,152.732 140.363 C 152.800 140.967,152.783 141.144,152.678 140.917 C 152.546 140.632,152.522 140.664,152.512 141.135 C 152.505 141.463,152.568 141.645,152.667 141.583 C 152.770 141.519,152.841 141.878,152.855 142.532 C 152.891 144.310,152.921 144.477,153.273 144.870 C 153.694 145.340,154.500 146.798,154.500 147.092 C 154.500 147.387,155.315 148.335,155.528 148.288 C 155.623 148.267,155.923 148.683,156.195 149.211 L 156.690 150.172 157.115 149.838 C 157.654 149.414,157.696 149.446,158.180 150.667 C 158.636 151.815,158.786 151.668,158.817 150.042 C 158.835 149.066,158.988 148.973,159.591 149.576 C 159.872 149.857,160.000 149.909,160.000 149.742 C 160.000 149.377,160.295 149.451,160.526 149.875 L 160.730 150.250 160.848 149.833 C 160.913 149.604,160.980 149.117,160.997 148.750 L 161.027 148.083 161.256 148.583 C 161.382 148.858,161.488 149.252,161.492 149.458 C 161.512 150.413,162.301 149.496,162.355 148.456 C 162.398 147.621,162.496 147.511,162.833 147.917 C 163.085 148.220,163.496 148.245,163.511 147.958 C 163.526 147.691,163.780 148.278,163.908 148.875 C 164.020 149.395,164.563 149.512,164.739 149.053 C 164.798 148.899,164.888 148.055,164.938 147.178 C 165.028 145.605,165.549 143.500,165.847 143.500 C 165.931 143.500,166.000 143.383,166.000 143.240 C 166.000 143.065,166.124 142.996,166.375 143.031 C 166.732 143.081,166.757 143.009,166.902 141.500 C 167.010 140.387,167.091 140.040,167.175 140.333 C 167.292 140.740,167.298 140.736,167.421 140.195 C 167.565 139.562,167.826 139.778,167.831 140.533 C 167.835 141.245,168.179 142.667,168.347 142.667 C 168.431 142.667,168.501 142.385,168.502 142.042 C 168.506 141.235,168.832 140.597,169.275 140.533 C 169.683 140.474,169.977 138.314,169.993 135.250 C 170.008 132.478,170.336 124.774,170.444 124.676 C 170.499 124.625,170.503 126.646,170.453 129.167 C 170.402 131.688,170.385 133.637,170.415 133.500 C 170.834 131.586,171.175 124.372,170.837 124.581 C 170.743 124.639,170.667 124.565,170.667 124.417 C 170.667 124.268,170.742 124.193,170.833 124.250 C 170.941 124.316,171.000 123.670,171.000 122.432 C 171.000 120.811,170.962 120.525,170.755 120.604 C 170.565 120.677,170.499 121.112,170.458 122.557 C 170.427 123.638,170.395 123.055,170.381 121.167 C 170.368 119.379,170.414 118.063,170.484 118.241 C 170.675 118.729,170.845 118.071,170.978 116.333 C 171.081 114.978,171.094 114.942,171.277 115.500 C 171.782 117.039,172.557 120.238,173.176 123.333 C 173.552 125.212,174.231 128.212,174.685 130.000 C 175.537 133.350,175.592 133.549,176.606 136.917 C 176.937 138.017,177.383 139.501,177.596 140.215 C 177.810 140.930,178.068 142.266,178.169 143.185 C 178.329 144.644,178.626 145.976,178.656 145.375 C 178.671 145.085,179.323 145.113,179.437 145.409 C 179.488 145.542,179.411 145.821,179.265 146.029 C 178.861 146.606,178.924 147.000,179.420 147.000 C 179.844 147.000,181.038 147.657,181.257 148.011 C 181.345 148.153,181.407 148.151,181.499 148.002 C 181.585 147.862,181.782 147.958,182.154 148.321 C 182.700 148.855,183.059 148.878,182.890 148.370 C 182.838 148.212,182.989 148.308,183.225 148.583 C 183.461 148.858,183.657 149.248,183.661 149.448 C 183.671 150.055,183.999 150.074,184.006 149.468 L 184.011 148.917 184.339 149.310 C 184.664 149.701,184.667 149.701,184.667 149.344 C 184.667 148.897,185.253 149.265,185.775 150.041 C 186.125 150.562,186.435 150.668,186.173 150.178 C 185.900 149.669,185.966 149.620,186.458 149.967 C 188.381 151.322,190.590 151.570,192.150 150.607 C 192.691 150.273,193.226 150.000,193.339 150.000 C 194.487 150.000,196.996 147.165,197.002 145.861 C 197.003 145.617,197.217 144.704,197.477 143.833 C 197.926 142.333,198.012 141.000,197.660 141.000 C 197.585 141.000,197.592 140.760,197.676 140.467 C 197.760 140.173,197.948 139.217,198.094 138.342 C 198.239 137.466,198.578 136.081,198.846 135.263 C 199.114 134.445,199.333 133.451,199.333 133.055 C 199.333 132.658,199.408 132.333,199.500 132.333 C 199.592 132.333,199.658 132.127,199.647 131.875 C 199.633 131.536,199.606 131.501,199.545 131.741 C 199.500 131.919,199.296 132.332,199.091 132.658 C 198.886 132.983,198.669 133.362,198.608 133.500 C 198.482 133.782,198.493 133.707,199.186 129.586 C 199.749 126.231,199.684 126.471,199.980 126.654 C 200.160 126.766,200.133 127.191,199.829 128.986 C 199.625 130.193,199.505 131.227,199.562 131.285 C 199.620 131.342,199.676 131.170,199.686 130.903 L 199.706 130.417 199.838 130.917 C 199.963 131.391,199.969 131.383,199.962 130.750 C 199.958 130.383,200.034 129.633,200.130 129.083 C 200.226 128.533,200.303 127.971,200.300 127.833 C 200.297 127.696,200.374 127.283,200.470 126.917 C 200.567 126.550,200.795 125.688,200.978 125.000 C 201.554 122.831,202.106 118.986,202.507 114.333 C 202.606 113.188,202.754 111.950,202.836 111.583 C 202.917 111.217,203.065 109.792,203.164 108.417 C 203.410 105.009,203.481 104.284,203.658 103.370 C 203.959 101.819,204.028 100.796,203.823 100.923 C 203.684 101.009,203.665 100.886,203.753 100.479 C 203.820 100.170,203.944 99.873,204.028 99.819 C 204.112 99.765,204.173 99.465,204.163 99.152 C 204.154 98.839,204.219 98.246,204.309 97.833 C 204.443 97.213,204.825 94.885,205.069 93.196 C 205.102 92.970,205.064 92.870,204.977 92.956 C 204.896 93.038,204.759 93.549,204.672 94.094 L 204.516 95.083 204.585 94.167 C 204.623 93.662,204.733 91.787,204.829 90.000 C 204.925 88.212,205.111 85.813,205.243 84.667 C 205.375 83.521,205.529 81.796,205.585 80.833 C 205.702 78.810,205.915 77.102,206.271 75.333 C 206.835 72.532,205.640 70.019,202.885 68.214 C 202.673 68.075,202.500 67.829,202.500 67.668 C 202.500 67.325,202.065 67.136,200.333 66.728 C 198.880 66.386,198.812 66.335,198.436 65.309 C 197.798 63.569,197.237 63.311,195.414 63.923 C 193.849 64.448,193.468 64.321,192.781 63.040 C 192.331 62.202,191.667 61.817,191.667 62.394 M284.000 62.583 C 283.221 62.700,282.281 62.758,281.912 62.713 C 281.484 62.661,281.000 62.735,280.578 62.915 C 279.281 63.472,278.088 63.839,277.032 64.008 C 276.312 64.123,275.490 64.432,274.522 64.951 C 271.436 66.606,268.757 67.721,267.224 67.988 C 266.368 68.138,264.668 69.008,264.667 69.297 C 264.665 70.500,263.783 70.877,263.374 69.849 L 263.202 69.417 263.184 69.877 C 263.165 70.389,262.343 71.023,261.750 70.985 C 261.164 70.947,261.041 70.994,260.941 71.292 C 260.887 71.452,260.777 71.696,260.697 71.833 C 260.269 72.569,260.167 72.889,260.167 73.492 C 260.167 73.992,260.082 74.200,259.822 74.339 C 259.569 74.475,259.491 74.656,259.529 75.019 C 259.558 75.291,259.493 75.568,259.384 75.635 C 258.993 75.877,258.840 76.602,259.101 76.975 C 259.357 77.341,259.266 79.000,258.991 79.000 C 258.917 79.000,258.898 79.394,258.947 79.875 C 259.055 80.932,258.543 85.572,257.749 90.748 C 257.427 92.841,257.089 95.198,256.998 95.985 C 256.764 97.997,256.068 104.728,255.754 108.000 C 255.609 109.513,255.385 111.575,255.257 112.583 C 255.128 113.592,254.978 116.142,254.923 118.250 C 254.792 123.301,254.406 129.467,254.185 130.041 C 253.899 130.783,253.914 132.261,254.212 132.716 C 254.357 132.937,254.527 133.391,254.590 133.726 C 254.652 134.060,254.766 134.333,254.843 134.333 C 254.919 134.333,255.080 134.539,255.201 134.790 C 255.321 135.041,255.630 135.348,255.886 135.471 C 256.143 135.594,256.427 135.857,256.518 136.057 C 256.609 136.256,256.979 136.589,257.342 136.798 C 257.704 137.006,258.000 137.243,258.000 137.325 C 258.000 137.407,258.244 137.525,258.542 137.588 C 258.840 137.651,259.250 137.855,259.453 138.042 C 259.952 138.500,260.883 138.586,260.748 138.162 C 260.696 137.997,260.723 137.818,260.808 137.766 C 260.893 137.713,261.001 137.820,261.049 138.002 C 261.138 138.342,261.500 138.470,261.500 138.161 C 261.500 138.042,261.600 138.042,261.822 138.161 C 262.315 138.425,262.500 138.370,262.503 137.958 C 262.504 137.695,262.546 137.648,262.644 137.802 C 262.796 138.042,263.222 137.524,263.378 136.910 C 263.432 136.699,263.468 136.776,263.481 137.125 C 263.497 137.581,263.833 137.957,263.833 137.519 C 263.833 137.282,264.455 137.188,264.666 137.394 C 264.813 137.537,264.851 137.461,264.822 137.083 C 264.762 136.306,264.819 135.971,264.993 136.079 C 265.081 136.133,265.271 135.948,265.416 135.667 C 265.663 135.191,265.699 135.175,265.958 135.434 C 266.122 135.598,266.259 135.639,266.294 135.535 C 266.334 135.415,266.526 135.430,266.882 135.580 C 267.240 135.731,267.508 135.751,267.709 135.644 C 267.873 135.556,268.080 135.530,268.170 135.585 C 268.260 135.641,268.333 135.561,268.333 135.407 C 268.333 135.149,268.364 135.148,268.744 135.397 C 268.970 135.546,269.303 135.667,269.484 135.667 C 269.665 135.667,269.862 135.745,269.922 135.841 C 269.996 135.962,270.098 135.959,270.251 135.832 C 270.419 135.693,270.516 135.721,270.648 135.949 C 270.744 136.115,270.826 136.175,270.830 136.083 C 270.833 135.992,270.910 135.461,271.000 134.904 C 271.091 134.347,271.201 131.985,271.246 129.654 C 271.332 125.158,271.345 124.981,271.651 123.871 C 271.760 123.479,271.804 123.087,271.750 123.000 C 271.696 122.912,271.744 122.670,271.857 122.462 C 271.993 122.210,272.098 120.768,272.168 118.165 C 272.253 115.012,272.325 114.166,272.537 113.832 C 272.715 113.551,272.837 112.793,272.915 111.486 C 273.069 108.895,273.107 108.872,274.230 110.701 C 274.754 111.553,275.750 113.150,276.445 114.250 C 277.894 116.544,279.738 119.517,280.165 120.250 C 280.326 120.525,280.808 121.339,281.237 122.060 C 281.665 122.780,282.703 124.730,283.542 126.393 C 284.382 128.056,285.271 129.754,285.517 130.167 C 287.525 133.524,288.495 135.203,288.835 135.912 C 289.320 136.923,290.162 138.318,291.467 140.273 C 292.010 141.085,292.814 142.313,293.255 143.000 C 295.218 146.062,296.748 148.295,297.252 148.833 C 299.205 150.919,299.509 151.199,299.730 151.114 C 299.861 151.064,300.100 151.167,300.260 151.345 C 300.827 151.971,301.308 151.560,300.989 150.721 C 300.739 150.063,301.018 149.920,301.768 150.321 C 302.533 150.732,302.833 150.758,302.833 150.413 C 302.833 150.274,303.040 150.078,303.292 149.978 C 303.544 149.879,303.880 149.731,304.039 149.649 C 304.199 149.567,304.480 149.500,304.664 149.500 C 305.000 149.500,305.058 149.376,305.013 148.750 C 304.996 148.514,305.303 148.205,306.069 147.687 C 307.225 146.905,307.667 146.875,307.667 147.578 C 307.667 147.810,307.742 148.000,307.833 148.000 C 307.925 148.000,308.000 147.934,308.000 147.854 C 308.000 147.774,308.188 147.708,308.417 147.708 C 308.646 147.708,308.833 147.782,308.833 147.872 C 308.833 147.962,308.959 147.988,309.112 147.929 C 309.265 147.870,309.440 147.902,309.500 148.000 C 309.667 148.270,310.092 148.037,310.352 147.533 C 310.479 147.286,310.641 147.008,310.711 146.917 C 310.781 146.825,311.212 146.248,311.668 145.635 C 312.123 145.022,312.771 144.311,313.106 144.055 C 314.889 142.695,314.849 138.692,313.026 136.177 C 312.750 135.795,312.448 135.131,312.356 134.700 C 312.039 133.224,311.891 133.024,308.583 129.561 C 307.942 128.890,307.342 128.245,307.250 128.128 C 306.381 127.019,305.667 126.032,305.667 125.938 C 305.667 125.875,305.360 125.436,304.986 124.962 C 304.611 124.488,304.094 123.684,303.837 123.175 C 303.580 122.666,303.101 121.965,302.772 121.617 C 302.444 121.269,302.117 120.889,302.046 120.772 C 301.975 120.656,301.485 120.237,300.957 119.842 C 300.193 119.271,298.766 117.649,297.210 115.582 C 295.666 113.533,294.828 112.457,294.344 111.906 C 294.017 111.534,293.412 110.823,293.000 110.326 C 292.587 109.829,291.546 108.684,290.685 107.781 L 289.121 106.139 289.879 105.445 C 290.296 105.063,291.060 104.525,291.577 104.250 C 292.093 103.975,292.659 103.619,292.834 103.458 C 293.224 103.102,293.694 103.069,293.564 103.408 C 293.486 103.610,293.541 103.617,293.907 103.449 C 294.227 103.303,294.321 103.159,294.260 102.908 C 294.199 102.657,294.309 102.488,294.672 102.274 C 294.944 102.113,295.167 101.876,295.167 101.746 C 295.167 101.508,295.657 101.167,295.999 101.167 C 296.102 101.167,296.140 101.242,296.083 101.333 C 296.027 101.425,296.055 101.500,296.146 101.500 C 296.347 101.500,296.558 100.895,296.429 100.686 C 296.378 100.604,296.520 100.416,296.746 100.268 C 297.254 99.935,297.349 99.932,297.227 100.250 C 297.174 100.388,297.202 100.500,297.290 100.500 C 297.589 100.500,298.000 99.890,298.000 99.445 C 298.000 99.064,298.070 99.000,298.488 99.000 C 299.044 99.000,299.698 98.058,299.309 97.818 C 299.187 97.743,299.265 97.675,299.515 97.640 C 299.772 97.604,299.917 97.474,299.918 97.277 C 299.919 97.109,300.059 96.869,300.230 96.744 C 300.411 96.612,300.500 96.408,300.443 96.258 C 300.382 96.099,300.436 96.000,300.583 96.000 C 300.738 96.000,300.785 95.902,300.716 95.723 C 300.645 95.536,300.674 95.485,300.805 95.566 C 300.930 95.643,301.000 95.563,301.000 95.343 C 301.000 95.154,301.079 95.000,301.177 95.000 C 301.274 95.000,301.310 94.930,301.257 94.845 C 301.204 94.760,301.238 94.642,301.332 94.584 C 301.636 94.396,302.033 93.467,302.179 92.599 C 302.258 92.132,302.477 90.888,302.666 89.833 C 303.256 86.539,303.277 86.100,303.022 82.250 C 302.643 76.506,301.632 73.146,299.269 69.770 C 298.892 69.232,298.405 68.525,298.188 68.200 C 295.376 64.001,289.660 61.738,284.000 62.583 M115.949 67.899 C 115.881 68.072,115.865 68.254,115.913 68.302 C 116.065 68.454,116.199 68.205,116.135 67.888 C 116.076 67.598,116.068 67.599,115.949 67.899 M170.616 67.899 C 170.548 68.072,170.531 68.254,170.579 68.302 C 170.731 68.454,170.865 68.205,170.801 67.888 C 170.743 67.598,170.734 67.599,170.616 67.899 M281.250 78.995 C 283.140 79.287,283.336 79.369,284.348 80.283 C 285.407 81.240,284.935 82.615,281.982 87.167 C 281.298 88.221,280.329 89.755,279.828 90.576 C 278.744 92.351,277.671 93.469,276.476 94.064 C 274.846 94.876,274.616 94.511,275.519 92.546 C 276.046 91.397,276.136 89.190,275.662 89.028 C 275.381 88.931,275.489 88.114,275.900 87.231 C 276.118 86.763,276.351 86.125,276.418 85.815 C 276.484 85.504,276.594 85.175,276.662 85.083 C 277.067 84.538,277.532 82.358,277.200 82.563 C 277.094 82.628,277.631 79.554,277.757 79.369 C 277.793 79.317,279.814 78.866,280.083 78.850 C 280.175 78.844,280.700 78.910,281.250 78.995 M76.422 84.125 C 76.575 84.835,76.802 85.792,76.927 86.250 C 77.051 86.708,77.202 87.541,77.262 88.101 L 77.371 89.119 75.778 89.330 C 73.202 89.671,72.759 89.219,73.751 87.263 C 73.979 86.812,74.167 86.355,74.167 86.248 C 74.167 86.140,74.315 85.917,74.497 85.753 C 74.678 85.589,74.876 85.183,74.936 84.852 C 75.097 83.957,75.695 82.833,76.009 82.833 C 76.083 82.833,76.269 83.415,76.422 84.125 M347.667 85.319 C 346.024 85.764,345.655 85.903,345.347 86.189 C 345.116 86.405,345.000 86.720,344.999 87.131 C 344.999 87.472,344.886 89.460,344.747 91.549 C 344.478 95.625,344.522 96.044,345.209 95.904 C 345.415 95.863,346.071 95.757,346.667 95.670 C 350.547 95.104,352.484 93.152,352.496 89.798 C 352.507 86.571,350.368 84.587,347.667 85.319 M355.148 85.414 C 354.691 85.665,354.498 86.605,353.817 91.895 C 353.683 92.932,353.532 93.468,353.313 93.687 C 352.877 94.123,352.903 94.202,353.749 94.981 C 354.567 95.735,354.308 95.703,356.747 95.350 C 357.295 95.270,358.477 95.242,359.374 95.287 C 361.459 95.391,361.834 95.303,361.831 94.705 C 361.824 93.517,361.008 92.000,360.376 92.000 C 360.059 92.000,356.989 92.586,356.375 92.764 C 356.115 92.839,356.002 92.802,356.006 92.644 C 356.011 92.441,356.396 90.648,356.574 90.000 C 356.612 89.862,356.831 89.036,357.061 88.164 C 357.291 87.291,357.559 86.368,357.656 86.111 C 357.880 85.522,357.886 85.557,357.542 85.415 C 356.957 85.172,355.588 85.171,355.148 85.414 M367.667 85.314 C 367.667 85.396,367.460 85.504,367.208 85.556 C 366.353 85.731,364.330 86.319,364.055 86.472 C 363.820 86.604,363.877 86.726,364.460 87.351 L 365.137 88.077 365.943 87.801 C 366.387 87.650,367.144 87.438,367.625 87.330 C 368.106 87.222,368.500 87.066,368.500 86.983 C 368.500 86.901,368.613 86.833,368.750 86.833 C 369.086 86.833,369.068 86.250,368.714 85.651 C 368.445 85.196,367.667 84.946,367.667 85.314 M375.458 85.339 C 370.957 86.097,370.560 90.377,374.956 90.754 C 377.328 90.957,377.596 91.146,376.907 92.131 C 376.225 93.103,373.018 93.503,371.693 92.779 C 370.376 92.061,371.391 93.697,372.816 94.590 C 375.966 96.563,379.660 95.022,379.666 91.733 C 379.669 89.708,378.405 88.660,375.674 88.424 C 373.614 88.246,374.276 87.403,376.451 87.434 L 377.667 87.451 377.667 86.966 C 377.667 86.457,376.759 85.151,376.430 85.186 C 376.331 85.197,375.894 85.266,375.458 85.339 M322.605 85.822 C 322.314 86.108,322.204 86.318,322.325 86.358 C 322.513 86.421,322.349 89.499,322.060 91.333 L 321.968 91.917 321.753 91.250 C 321.635 90.883,321.299 89.683,321.007 88.583 C 320.297 85.908,320.218 85.762,319.446 85.698 C 317.967 85.575,317.657 85.943,316.960 88.660 C 316.618 89.993,316.206 91.555,316.046 92.132 L 315.754 93.180 316.457 93.850 C 317.600 94.937,317.996 94.848,318.375 93.417 C 318.546 92.775,318.756 92.179,318.842 92.092 C 318.929 92.005,319.000 91.765,319.000 91.560 C 319.000 90.756,319.318 91.056,319.660 92.182 C 320.328 94.381,320.768 95.121,321.470 95.223 C 323.578 95.530,323.778 95.538,323.783 95.310 C 323.786 95.185,323.906 94.671,324.051 94.167 C 324.195 93.662,324.353 92.837,324.402 92.333 C 324.527 91.032,325.095 88.207,325.393 87.404 C 326.002 85.763,325.711 85.332,324.000 85.345 C 323.224 85.351,323.010 85.425,322.605 85.822 M329.669 85.682 C 326.406 86.840,324.990 91.545,327.216 93.835 C 328.432 95.086,330.242 95.544,331.542 94.929 C 336.928 92.381,335.176 83.728,329.669 85.682 M338.957 85.629 C 335.807 86.779,334.281 91.321,336.265 93.640 C 338.419 96.155,341.681 95.590,343.316 92.417 C 345.328 88.511,342.619 84.292,338.957 85.629 M331.785 87.613 C 332.859 89.253,331.406 93.009,329.703 92.995 C 327.530 92.976,328.101 88.632,330.417 87.569 C 331.471 87.084,331.437 87.083,331.785 87.613 M341.140 87.919 C 341.852 90.036,340.522 93.000,338.861 93.000 C 336.790 93.000,337.345 88.669,339.554 87.594 C 340.652 87.060,340.866 87.104,341.140 87.919 M348.947 87.340 C 349.964 87.694,350.329 89.673,349.654 91.167 C 349.293 91.964,348.399 93.000,348.071 93.000 C 347.963 93.000,347.781 93.112,347.667 93.250 C 347.362 93.617,346.667 93.575,346.667 93.191 C 346.667 92.628,346.999 88.595,347.097 87.968 C 347.194 87.346,347.209 87.336,348.267 87.192 C 348.368 87.178,348.674 87.245,348.947 87.340 M363.095 87.691 C 363.053 87.815,362.982 88.404,362.936 89.000 C 362.890 89.596,362.736 91.096,362.595 92.333 C 362.261 95.251,362.240 95.056,362.942 95.592 C 363.543 96.049,363.555 96.051,363.817 95.728 C 364.266 95.175,365.935 94.812,369.139 94.572 C 370.174 94.494,370.722 94.382,370.778 94.238 C 370.851 94.046,370.111 92.120,369.839 91.793 C 369.717 91.646,367.719 92.019,366.084 92.494 C 365.442 92.681,364.899 92.833,364.876 92.833 C 364.852 92.833,364.833 92.421,364.833 91.917 C 364.833 90.943,364.897 90.869,365.403 91.252 C 365.581 91.387,365.803 91.434,365.903 91.359 C 366.002 91.285,366.740 91.011,367.542 90.749 C 369.198 90.210,369.439 89.787,368.580 88.928 L 368.159 88.508 367.313 88.841 C 366.848 89.025,366.161 89.323,365.786 89.504 C 365.411 89.685,365.081 89.833,365.052 89.833 C 365.023 89.833,365.000 89.466,365.000 89.018 C 365.000 88.132,365.121 88.242,363.376 87.548 C 363.263 87.502,363.136 87.567,363.095 87.691 M299.073 98.149 C 299.123 98.231,299.053 98.341,298.916 98.394 C 298.764 98.452,298.667 98.393,298.667 98.245 C 298.667 97.975,298.927 97.914,299.073 98.149 M337.375 99.172 C 336.894 99.448,336.500 99.757,336.500 99.859 C 336.500 99.975,336.295 100.010,335.944 99.953 C 335.049 99.808,335.048 99.812,334.731 104.380 L 334.434 108.675 334.778 109.019 L 335.122 109.363 335.796 109.019 C 336.166 108.830,336.498 108.591,336.532 108.487 C 336.574 108.361,336.856 108.421,337.380 108.667 C 339.460 109.645,341.813 108.767,342.337 106.818 C 342.715 105.417,341.858 103.423,340.686 102.976 C 340.322 102.837,340.311 102.801,340.550 102.537 C 342.479 100.405,339.932 97.705,337.375 99.172 M345.787 99.051 C 345.655 99.252,345.352 100.054,345.112 100.833 C 344.873 101.612,344.271 103.525,343.775 105.083 C 342.793 108.170,342.792 108.302,343.725 108.833 C 344.387 109.210,344.678 108.916,345.273 107.265 C 345.900 105.528,345.765 105.679,346.798 105.556 L 347.642 105.456 347.814 106.103 C 347.909 106.459,348.101 107.193,348.241 107.734 C 348.381 108.275,348.515 108.732,348.539 108.750 C 349.083 109.161,350.316 109.241,350.453 108.875 C 350.513 108.715,350.671 108.502,350.804 108.402 C 351.012 108.246,351.000 108.087,350.712 107.236 C 350.528 106.694,350.241 105.725,350.074 105.083 C 349.907 104.442,349.714 103.877,349.645 103.829 C 349.528 103.748,349.254 102.810,349.062 101.833 C 348.499 98.966,348.424 98.860,346.924 98.750 C 346.144 98.693,345.995 98.733,345.787 99.051 M356.845 98.860 C 356.439 98.933,355.722 99.248,355.252 99.560 C 354.484 100.070,354.358 100.105,353.990 99.913 C 353.766 99.795,353.320 99.673,352.999 99.641 L 352.417 99.583 352.313 100.417 C 351.355 108.143,351.350 108.313,352.053 108.792 C 353.087 109.495,353.667 108.897,353.667 107.126 C 353.667 106.314,354.047 104.667,354.235 104.667 C 354.413 104.667,355.500 106.040,355.500 106.265 C 355.500 106.665,357.861 109.371,358.367 109.550 C 358.773 109.693,361.167 108.104,361.167 107.691 C 361.167 107.402,358.874 105.742,357.146 104.781 L 356.603 104.479 357.010 104.246 C 357.234 104.118,357.529 103.958,357.667 103.890 C 360.677 102.410,360.004 98.293,356.845 98.860 M318.697 99.511 C 317.487 100.116,317.207 100.721,317.469 102.165 C 317.598 102.875,317.576 103.030,317.312 103.270 C 315.986 104.469,315.558 106.616,316.437 107.660 C 317.777 109.253,322.056 109.341,322.799 107.790 C 323.061 107.243,323.225 107.228,324.060 107.675 C 324.632 107.982,324.736 107.992,325.057 107.774 C 325.583 107.418,327.167 105.864,327.167 105.704 C 327.167 105.583,325.313 105.080,324.419 104.958 C 324.236 104.933,324.060 104.764,324.027 104.581 C 323.994 104.399,323.869 104.025,323.749 103.750 C 323.629 103.475,323.484 103.037,323.425 102.777 C 323.289 102.165,322.912 102.431,322.668 103.311 C 322.370 104.387,322.313 104.413,321.315 103.911 C 320.182 103.342,320.190 103.350,320.560 103.080 C 322.176 101.898,322.490 101.146,321.820 100.061 C 321.076 98.857,320.284 98.718,318.697 99.511 M338.754 101.358 C 338.602 101.665,338.126 102.210,337.697 102.569 L 336.917 103.222 336.864 102.490 C 336.788 101.450,336.971 100.571,337.212 100.812 C 337.471 101.071,338.038 101.048,338.426 100.761 C 338.903 100.410,339.072 100.718,338.754 101.358 M357.081 101.034 C 356.803 102.142,354.008 104.252,354.220 103.193 C 354.272 102.929,354.367 102.325,354.430 101.851 C 354.536 101.053,354.566 101.008,354.827 101.244 C 355.154 101.540,355.763 101.582,355.925 101.320 C 356.059 101.104,357.044 100.488,357.125 100.570 C 357.157 100.601,357.137 100.810,357.081 101.034 M319.301 101.330 C 318.686 102.070,318.500 102.152,318.500 101.681 C 318.500 101.350,319.252 100.681,319.634 100.672 C 319.755 100.669,319.607 100.962,319.301 101.330 M347.000 103.333 C 347.000 103.667,346.917 103.833,346.750 103.833 C 346.488 103.833,346.430 103.544,346.601 103.097 C 346.768 102.662,347.000 102.799,347.000 103.333 M319.745 105.138 L 320.808 105.943 320.362 106.203 C 318.604 107.227,317.105 106.404,318.089 104.955 C 318.609 104.191,318.473 104.176,319.745 105.138 M339.772 104.851 C 340.727 105.644,339.127 107.378,336.932 107.928 C 336.482 108.041,336.456 108.021,336.555 107.650 C 336.614 107.430,336.663 106.821,336.664 106.297 C 336.667 105.351,336.672 105.340,337.314 105.047 C 338.085 104.694,339.451 104.585,339.772 104.851 M337.792 112.357 C 337.416 112.497,337.352 112.600,337.435 112.930 C 337.536 113.332,337.531 113.333,336.185 113.333 L 334.833 113.333 334.833 114.026 C 334.833 114.673,334.814 114.701,334.542 114.460 C 334.324 114.267,334.024 114.224,333.366 114.289 L 332.483 114.377 332.599 113.897 C 332.663 113.633,332.779 113.245,332.856 113.036 C 333.010 112.618,332.970 112.590,331.969 112.424 L 331.355 112.322 331.240 113.120 C 331.106 114.039,330.491 115.772,330.069 116.416 C 329.782 116.853,329.785 116.863,330.387 117.464 C 331.102 118.180,331.247 118.083,331.771 116.542 C 332.050 115.724,332.105 115.667,332.618 115.667 C 333.219 115.667,333.247 115.705,332.997 116.173 C 332.851 116.445,332.923 116.539,333.499 116.833 L 334.171 117.176 334.338 116.713 C 334.671 115.791,334.810 115.551,334.822 115.875 C 334.830 116.074,334.969 116.167,335.260 116.167 L 335.687 116.167 335.635 120.417 L 335.583 124.667 336.292 124.667 C 336.889 124.667,337.000 124.614,337.000 124.333 C 337.000 124.022,337.111 124.000,338.667 124.000 C 340.222 124.000,340.333 124.022,340.333 124.333 C 340.333 124.617,340.444 124.667,341.083 124.667 L 341.833 124.667 341.833 122.333 L 341.833 120.000 339.417 120.000 L 337.000 120.000 337.000 119.583 L 337.000 119.167 339.167 119.167 L 341.333 119.167 341.333 117.667 C 341.333 116.178,341.336 116.167,341.750 116.167 C 342.162 116.167,342.167 116.150,342.167 114.750 L 342.167 113.333 340.691 113.333 L 339.215 113.333 339.060 112.792 C 338.890 112.194,338.546 112.077,337.792 112.357 M373.381 112.388 C 372.963 112.540,372.880 112.639,373.003 112.833 C 373.291 113.287,373.179 113.333,371.787 113.333 L 370.408 113.333 370.474 114.042 C 370.539 114.731,370.532 114.742,370.220 114.462 C 369.964 114.233,369.720 114.196,369.014 114.279 L 368.129 114.384 368.244 113.817 C 368.307 113.505,368.395 113.118,368.441 112.958 C 368.529 112.642,368.418 112.582,367.458 112.422 C 366.861 112.323,366.833 112.339,366.831 112.784 C 366.828 113.514,366.388 114.996,365.876 116.000 L 365.409 116.917 366.020 117.461 L 366.630 118.006 366.960 117.448 C 367.141 117.141,367.380 116.614,367.491 116.278 C 367.745 115.508,368.792 115.310,368.602 116.067 C 368.521 116.392,368.604 116.533,369.041 116.810 C 369.666 117.205,369.783 117.135,370.196 116.120 C 370.403 115.611,370.484 115.520,370.491 115.792 C 370.497 116.052,370.602 116.167,370.833 116.167 C 371.158 116.167,371.167 116.278,371.167 120.417 L 371.167 124.667 371.917 124.667 C 372.556 124.667,372.667 124.617,372.667 124.333 C 372.667 124.023,372.778 124.000,374.250 124.000 C 375.722 124.000,375.833 124.023,375.833 124.333 C 375.833 124.623,375.944 124.667,376.684 124.667 C 377.392 124.667,377.519 124.622,377.434 124.403 C 377.379 124.258,377.333 123.208,377.333 122.070 L 377.333 120.000 375.000 120.000 L 372.667 120.000 372.667 119.583 L 372.667 119.167 374.750 119.167 L 376.833 119.167 376.833 117.667 L 376.833 116.167 377.333 116.167 L 377.833 116.167 377.833 114.750 L 377.833 113.333 376.364 113.333 L 374.895 113.333 374.617 112.750 C 374.317 112.122,374.202 112.088,373.381 112.388 M352.951 112.877 L 352.486 113.417 352.868 113.666 C 353.078 113.803,353.596 114.235,354.019 114.626 L 354.788 115.337 355.175 114.772 C 355.521 114.266,355.665 114.197,356.555 114.104 C 358.184 113.934,358.167 113.928,358.167 114.583 L 358.167 115.167 356.958 115.167 L 355.750 115.167 355.750 119.833 L 355.750 124.500 356.458 124.500 C 356.977 124.500,357.167 124.433,357.167 124.250 C 357.167 124.038,357.583 124.000,359.917 124.000 C 362.250 124.000,362.667 124.038,362.667 124.250 C 362.667 124.433,362.856 124.500,363.375 124.500 L 364.083 124.500 364.083 119.833 L 364.083 115.167 362.875 115.167 L 361.667 115.167 361.667 114.564 L 361.667 113.961 363.083 114.079 L 364.500 114.197 364.500 113.432 L 364.500 112.667 360.011 112.667 L 355.521 112.667 355.469 113.172 L 355.417 113.677 354.525 113.005 C 353.456 112.200,353.530 112.206,352.951 112.877 M316.667 113.349 L 316.667 114.115 319.191 114.034 L 321.715 113.953 321.594 114.434 C 321.378 115.294,321.270 115.333,319.146 115.333 L 317.167 115.333 317.167 120.000 L 317.167 124.667 318.000 124.667 C 318.722 124.667,318.833 124.622,318.833 124.333 C 318.833 124.009,318.944 124.000,322.833 124.000 C 326.722 124.000,326.833 124.009,326.833 124.333 C 326.833 124.622,326.944 124.667,327.667 124.667 L 328.500 124.667 328.500 120.000 L 328.500 115.333 325.762 115.333 L 323.025 115.333 323.304 114.651 L 323.583 113.968 326.292 114.038 L 329.000 114.107 329.000 113.345 L 329.000 112.583 322.833 112.583 L 316.667 112.583 316.667 113.349 M170.691 117.114 C 170.556 117.821,170.535 117.699,170.520 116.083 C 170.497 113.543,170.733 112.294,170.797 114.614 C 170.823 115.548,170.776 116.673,170.691 117.114 M360.167 114.583 C 360.167 115.056,360.103 115.167,359.833 115.167 C 359.563 115.167,359.500 115.056,359.500 114.583 C 359.500 114.111,359.563 114.000,359.833 114.000 C 360.103 114.000,360.167 114.111,360.167 114.583 M340.667 115.083 L 340.667 115.500 338.500 115.500 L 336.333 115.500 336.333 115.083 L 336.333 114.667 338.500 114.667 L 340.667 114.667 340.667 115.083 M376.333 115.083 L 376.333 115.500 374.083 115.500 L 371.833 115.500 371.833 115.083 L 371.833 114.667 374.083 114.667 L 376.333 114.667 376.333 115.083 M352.457 116.168 L 351.999 116.805 352.624 117.191 C 352.968 117.404,353.526 117.827,353.863 118.131 L 354.476 118.684 354.905 118.053 C 355.140 117.706,355.333 117.369,355.333 117.303 C 355.333 117.203,353.622 115.926,353.082 115.624 C 352.990 115.573,352.709 115.817,352.457 116.168 M358.098 117.193 C 357.985 117.904,357.531 118.833,357.297 118.833 C 357.225 118.833,357.167 118.308,357.167 117.667 L 357.167 116.500 357.688 116.500 C 358.206 116.500,358.209 116.504,358.098 117.193 M360.167 117.492 C 360.167 119.160,360.464 119.493,361.958 119.498 C 362.602 119.500,362.667 119.538,362.667 119.917 L 362.667 120.333 359.917 120.333 L 357.167 120.333 357.167 119.833 C 357.167 119.224,357.271 119.212,357.840 119.756 L 358.281 120.179 358.695 119.548 C 359.236 118.724,359.500 117.936,359.500 117.142 C 359.500 116.611,359.558 116.500,359.833 116.500 C 360.129 116.500,360.167 116.611,360.167 117.492 M362.667 117.333 C 362.667 118.148,362.656 118.167,362.167 118.167 C 361.678 118.167,361.667 118.148,361.667 117.333 C 361.667 116.519,361.678 116.500,362.167 116.500 C 362.656 116.500,362.667 116.519,362.667 117.333 M320.167 119.667 L 320.167 122.667 319.500 122.667 L 318.833 122.667 318.833 119.667 L 318.833 116.667 319.500 116.667 L 320.167 116.667 320.167 119.667 M324.000 117.250 L 324.000 117.833 322.833 117.833 L 321.667 117.833 321.667 117.250 L 321.667 116.667 322.833 116.667 L 324.000 116.667 324.000 117.250 M326.833 119.667 L 326.833 122.667 326.083 122.667 L 325.333 122.667 325.333 119.667 L 325.333 116.667 326.083 116.667 L 326.833 116.667 326.833 119.667 M339.833 117.417 L 339.833 118.000 338.417 118.000 L 337.000 118.000 337.000 117.417 L 337.000 116.833 338.417 116.833 L 339.833 116.833 339.833 117.417 M375.500 117.417 L 375.500 118.000 374.083 118.000 L 372.667 118.000 372.667 117.417 L 372.667 116.833 374.083 116.833 L 375.500 116.833 375.500 117.417 M331.809 119.585 C 331.860 121.788,331.828 122.234,331.590 122.596 C 331.329 122.996,331.330 123.057,331.614 123.604 C 332.008 124.363,332.020 124.362,333.349 123.493 L 334.485 122.750 334.493 121.763 L 334.500 120.775 334.125 121.104 C 333.035 122.059,333.105 122.184,333.207 119.458 L 333.299 117.000 332.524 117.000 L 331.750 117.000 331.809 119.585 M367.333 119.740 C 367.333 121.387,367.267 122.521,367.167 122.583 C 366.910 122.742,366.968 123.273,367.301 123.820 L 367.602 124.315 368.343 123.878 C 370.027 122.885,370.167 122.719,370.167 121.710 L 370.167 120.793 369.792 121.062 C 368.739 121.816,368.802 121.932,368.862 119.346 L 368.917 117.000 368.125 117.000 L 367.333 117.000 367.333 119.740 M346.575 117.608 C 345.359 118.920,347.149 120.765,348.561 119.655 C 349.157 119.186,349.185 118.065,348.614 117.529 C 348.052 117.001,347.104 117.038,346.575 117.608 M324.000 119.583 L 324.000 120.167 322.833 120.167 L 321.667 120.167 321.667 119.583 L 321.667 119.000 322.833 119.000 L 324.000 119.000 324.000 119.583 M353.677 120.422 C 353.469 121.011,353.048 121.910,352.742 122.419 L 352.184 123.345 352.798 123.908 C 353.136 124.217,353.459 124.442,353.516 124.407 C 353.682 124.304,354.677 122.169,355.024 121.170 L 355.341 120.258 354.962 119.957 C 354.095 119.271,354.082 119.276,353.677 120.422 M340.333 121.917 L 340.333 122.500 338.667 122.500 L 337.000 122.500 337.000 121.917 L 337.000 121.333 338.667 121.333 L 340.333 121.333 340.333 121.917 M375.833 121.917 L 375.833 122.500 374.250 122.500 L 372.667 122.500 372.667 121.917 L 372.667 121.333 374.250 121.333 L 375.833 121.333 375.833 121.917 M324.000 122.083 L 324.000 122.667 322.833 122.667 L 321.667 122.667 321.667 122.083 L 321.667 121.500 322.833 121.500 L 324.000 121.500 324.000 122.083 M362.667 122.083 L 362.667 122.500 359.917 122.500 L 357.167 122.500 357.167 122.083 L 357.167 121.667 359.917 121.667 L 362.667 121.667 362.667 122.083 M107.951 147.042 C 107.911 147.248,107.879 147.079,107.879 146.667 C 107.879 146.254,107.911 146.085,107.951 146.292 C 107.991 146.498,107.991 146.835,107.951 147.042 M162.618 147.042 C 162.578 147.248,162.545 147.079,162.545 146.667 C 162.545 146.254,162.578 146.085,162.618 146.292 C 162.657 146.498,162.657 146.835,162.618 147.042 M212.426 148.572 C 212.687 149.025,212.810 149.338,212.698 149.269 C 212.499 149.146,211.833 147.960,211.833 147.729 C 211.833 147.563,211.890 147.644,212.426 148.572 M308.078 148.008 C 307.920 148.265,308.137 148.430,308.351 148.216 C 308.470 148.096,308.473 148.003,308.359 147.933 C 308.266 147.875,308.140 147.909,308.078 148.008 M67.000 149.641 C 67.000 149.967,66.366 150.289,65.681 150.310 C 64.809 150.337,64.856 150.251,65.941 149.839 C 66.900 149.475,67.000 149.456,67.000 149.641 M63.750 151.333 C 63.567 151.412,63.148 151.482,62.819 151.488 C 62.491 151.495,62.166 151.556,62.097 151.625 C 62.028 151.694,61.772 151.761,61.528 151.774 C 60.186 151.848,58.833 152.239,58.833 152.553 C 58.833 152.807,58.909 152.849,59.208 152.756 C 59.415 152.691,59.996 152.572,60.500 152.490 C 61.990 152.248,65.167 151.434,65.167 151.295 C 65.167 151.125,64.173 151.152,63.750 151.333 M56.623 152.292 C 56.290 152.947,56.516 153.300,57.212 153.211 C 58.046 153.104,57.930 153.190,58.062 152.583 C 58.149 152.187,58.134 152.144,57.994 152.375 C 57.761 152.758,56.581 152.797,56.727 152.417 C 56.824 152.163,56.740 152.062,56.623 152.292 M34.566 152.639 C 34.613 152.715,34.562 152.782,34.451 152.787 C 34.340 152.792,33.659 152.873,32.937 152.968 C 31.429 153.165,30.501 152.993,31.500 152.701 C 32.213 152.492,34.448 152.447,34.566 152.639 M58.243 152.678 C 58.183 152.776,58.173 152.896,58.222 152.944 C 58.342 153.064,58.667 152.853,58.667 152.657 C 58.667 152.444,58.379 152.458,58.243 152.678 M56.091 152.875 C 55.951 153.196,55.500 153.277,55.500 152.980 C 55.500 152.770,52.761 152.858,46.667 153.262 C 44.696 153.392,42.428 153.499,41.626 153.500 C 40.350 153.500,40.144 153.541,39.961 153.833 C 39.708 154.240,39.298 154.285,39.450 153.890 C 39.537 153.664,39.482 153.633,39.153 153.721 C 38.931 153.780,38.694 153.830,38.625 153.831 C 38.374 153.836,38.498 154.667,38.750 154.667 C 38.895 154.667,39.000 154.516,39.000 154.308 C 39.000 153.976,39.022 153.969,39.292 154.212 C 39.475 154.378,39.676 154.426,39.833 154.341 C 39.971 154.266,41.133 154.157,42.417 154.098 C 43.700 154.039,45.350 153.955,46.083 153.911 C 50.636 153.641,53.422 153.496,54.629 153.466 C 56.170 153.428,56.399 153.349,56.292 152.897 C 56.223 152.605,56.209 152.604,56.091 152.875 M37.946 154.235 C 37.852 154.479,37.960 154.667,38.194 154.667 C 38.381 154.667,38.372 154.210,38.184 154.094 C 38.102 154.043,37.995 154.107,37.946 154.235 " stroke="none" fill="#0c0404" fill-rule="evenodd"></path><path id="path1" d="" stroke="none" fill="#100404" fill-rule="evenodd"></path><path id="path2" d="" stroke="none" fill="#100404" fill-rule="evenodd"></path><path id="path3" d="" stroke="none" fill="#100404" fill-rule="evenodd"></path><path id="path4" d="" stroke="none" fill="#100404" fill-rule="evenodd"></path></g></svg>